<?xml version="1.0" standalone="no"?>
<!DOCTYPE svg PUBLIC "-//W3C//DTD SVG 20010904//EN"
 "http://www.w3.org/TR/2001/REC-SVG-20010904/DTD/svg10.dtd">
<svg version="1.0" xmlns="http://www.w3.org/2000/svg"
 width="1200.000000pt" height="1200.000000pt" viewBox="0 0 1200.000000 1200.000000"
 preserveAspectRatio="xMidYMid meet">
<metadata>
Created by potrace 1.11, written by Peter Selinger 2001-2013
</metadata>
<g transform="translate(0.000000,1200.000000) scale(0.100000,-0.100000)"
fill="#000000" stroke="none">
<path d="M5559 10836 c-2 -2 -50 -7 -107 -11 -57 -3 -111 -8 -120 -10 -9 -1
-46 -6 -82 -10 -81 -8 -330 -49 -430 -70 -41 -9 -82 -18 -91 -20 -70 -15 -309
-82 -422 -119 -453 -149 -921 -386 -1317 -667 -59 -42 -304 -232 -320 -248 -8
-9 -46 -43 -85 -76 -158 -135 -407 -396 -560 -585 -42 -52 -83 -103 -90 -112
-8 -10 -56 -77 -108 -150 -273 -390 -477 -788 -632 -1238 -26 -74 -49 -146
-51 -159 -3 -13 -9 -32 -15 -43 -5 -10 -8 -18 -5 -18 2 0 -5 -28 -15 -61 -16
-51 -60 -228 -75 -304 -6 -28 -25 -126 -29 -150 -9 -46 -34 -225 -41 -285 -4
-36 -8 -76 -10 -90 -26 -204 -25 -840 1 -980 1 -8 6 -44 10 -80 9 -84 20 -165
31 -225 2 -10 6 -37 9 -58 5 -31 37 -187 60 -287 92 -411 287 -902 516 -1303
105 -183 310 -485 407 -602 106 -127 184 -219 216 -255 73 -80 310 -314 381
-375 37 -33 73 -64 79 -70 35 -32 174 -141 256 -202 348 -256 673 -437 1110
-618 158 -66 515 -179 634 -202 10 -2 53 -12 95 -22 42 -11 94 -22 116 -27 22
-4 45 -8 50 -9 12 -3 72 -13 123 -21 20 -3 64 -9 97 -14 33 -5 83 -12 110 -15
28 -3 61 -8 75 -10 160 -27 794 -27 995 0 17 3 57 7 90 10 68 7 106 12 185 25
30 5 73 12 95 16 33 4 243 48 280 58 6 1 26 6 45 10 358 79 862 278 1235 486
195 110 554 345 595 390 3 3 34 28 70 55 148 113 407 353 572 531 39 43 140
159 207 239 109 131 325 446 431 630 69 119 201 381 245 485 15 36 34 80 42
98 61 139 154 420 208 627 33 126 91 400 101 479 5 44 12 59 23 52 8 -5 38
-11 106 -21 22 -4 47 -8 55 -10 8 -2 31 -7 50 -10 19 -3 71 -12 115 -20 44 -8
94 -16 110 -19 17 -3 55 -9 85 -15 30 -6 96 -17 145 -26 50 -9 101 -18 115
-21 14 -3 41 -7 60 -10 19 -3 41 -7 48 -9 14 -5 16 9 2 33 -5 9 -26 53 -46 97
-20 44 -49 107 -64 140 -15 33 -37 83 -50 110 -12 28 -82 181 -155 340 -73
160 -156 342 -185 405 -62 137 -95 208 -145 315 -20 44 -43 94 -50 110 -32 70
-188 412 -250 548 l-68 148 -26 -30 c-14 -16 -91 -97 -171 -181 -80 -83 -170
-178 -200 -210 -99 -104 -334 -351 -389 -409 -73 -76 -309 -326 -362 -381 -41
-44 -257 -271 -440 -463 -52 -55 -95 -102 -97 -107 -3 -7 87 -26 208 -45 19
-3 46 -8 60 -10 36 -8 59 -12 110 -20 25 -4 54 -9 65 -11 11 -3 83 -16 160
-29 77 -14 175 -31 218 -38 43 -8 80 -17 84 -21 10 -9 -23 -190 -68 -376 -71
-291 -167 -555 -299 -824 -66 -133 -86 -170 -169 -313 -89 -153 -265 -395
-401 -553 -79 -92 -303 -318 -385 -390 -153 -135 -317 -258 -480 -364 -49 -32
-102 -67 -117 -77 -15 -11 -30 -19 -33 -19 -4 0 -37 -17 -73 -39 -37 -21 -116
-63 -177 -94 -127 -63 -162 -79 -315 -140 -47 -19 -137 -51 -200 -72 -63 -20
-122 -39 -130 -42 -8 -4 -19 -7 -25 -8 -5 -2 -63 -17 -129 -34 -194 -51 -432
-91 -631 -106 -49 -4 -103 -9 -120 -11 -37 -5 -411 -4 -480 1 -84 6 -188 16
-226 21 -20 2 -54 7 -75 9 -150 19 -359 62 -519 107 -435 121 -832 305 -1200
556 -739 504 -1295 1241 -1570 2084 -57 175 -119 420 -140 558 -3 19 -8 48
-11 63 -3 16 -7 38 -9 50 -1 12 -6 47 -9 77 -34 257 -39 729 -11 920 2 14 6
46 9 73 3 26 9 68 12 95 10 85 63 340 94 457 109 407 292 815 528 1175 50 75
226 317 241 330 3 3 28 32 56 65 285 344 702 688 1110 915 309 173 783 357
1039 404 11 2 39 9 61 14 33 9 117 25 314 57 14 3 52 7 85 11 34 3 75 7 91 10
156 20 629 20 757 -1 13 -2 54 -6 91 -10 37 -3 76 -8 85 -10 9 -1 40 -6 67 -9
44 -6 226 -40 280 -52 32 -8 58 -14 80 -18 32 -6 233 -66 315 -93 224 -74 498
-199 750 -342 68 -39 148 -78 176 -86 168 -49 368 27 465 178 108 167 94 373
-36 524 -32 37 -138 120 -190 149 -11 6 -76 42 -145 80 -213 118 -541 263
-720 318 -30 10 -64 21 -75 26 -98 43 -588 159 -775 185 -25 3 -62 8 -82 11
-72 10 -104 13 -168 19 -36 4 -81 9 -100 12 -40 5 -696 14 -701 9z"/>
<path d="M9475 8943 c-199 -41 -368 -201 -420 -399 -16 -59 -21 -177 -10 -224
3 -14 8 -38 11 -54 15 -82 85 -199 162 -268 296 -267 769 -142 894 237 32 98
31 252 -1 345 -28 80 -98 187 -154 236 -133 115 -311 161 -482 127z"/>
</g>
</svg>
